<svg width="306" height="60" viewBox="0 0 306 60" fill="none" xmlns="http://www.w3.org/2000/svg">
<path d="M44.592 39V17.816H54.096C55.76 17.816 57.072 18.104 58.032 18.68C59.0133 19.256 59.7173 19.9813 60.144 20.856C60.5707 21.7093 60.784 22.5627 60.784 23.416C60.784 24.7813 60.496 25.8373 59.92 26.584C59.344 27.3093 58.6827 27.8427 57.936 28.184C58.5333 28.376 59.1307 28.6853 59.728 29.112C60.3467 29.5173 60.8587 30.072 61.264 30.776C61.6693 31.48 61.872 32.3653 61.872 33.432C61.872 35.0107 61.264 36.3333 60.048 37.4C58.8533 38.4667 57.0507 39 54.64 39H44.592ZM46.992 27.288H54.096C54.8427 27.288 55.536 27.16 56.176 26.904C56.8373 26.648 57.3707 26.2533 57.776 25.72C58.1813 25.1653 58.384 24.4613 58.384 23.608C58.384 23.0107 58.2453 22.4453 57.968 21.912C57.712 21.3787 57.2853 20.9413 56.688 20.6C56.112 20.2587 55.3333 20.088 54.352 20.088H46.992V27.288ZM46.992 36.728H54.896C56.3467 36.728 57.4667 36.4293 58.256 35.832C59.0667 35.2133 59.472 34.3493 59.472 33.24C59.472 32.2373 59.088 31.3627 58.32 30.616C57.552 29.848 56.3253 29.464 54.64 29.464H46.992V36.728ZM72.0195 39.256C70.4622 39.256 69.0968 38.8933 67.9235 38.168C66.7715 37.4213 65.8755 36.4187 65.2355 35.16C64.5955 33.9013 64.2755 32.5147 64.2755 31C64.2755 29.464 64.5955 28.0773 65.2355 26.84C65.8755 25.5813 66.7715 24.5893 67.9235 23.864C69.0968 23.1173 70.4622 22.744 72.0195 22.744C73.3422 22.744 74.4728 23 75.4115 23.512C76.3715 24.024 77.1502 24.7173 77.7475 25.592V23H80.1475V39H77.7475V36.44C77.1502 37.2933 76.3715 37.976 75.4115 38.488C74.4728 39 73.3422 39.256 72.0195 39.256ZM72.3395 37.08C73.5342 37.08 74.5368 36.8027 75.3475 36.248C76.1795 35.6933 76.8088 34.9573 77.2355 34.04C77.6622 33.1013 77.8755 32.088 77.8755 31C77.8755 29.8907 77.6622 28.8773 77.2355 27.96C76.8088 27.0427 76.1795 26.3067 75.3475 25.752C74.5368 25.1973 73.5342 24.92 72.3395 24.92C71.1662 24.92 70.1528 25.1973 69.2995 25.752C68.4462 26.3067 67.7955 27.0427 67.3475 27.96C66.8995 28.8773 66.6755 29.8907 66.6755 31C66.6755 32.088 66.8995 33.1013 67.3475 34.04C67.7955 34.9573 68.4462 35.6933 69.2995 36.248C70.1528 36.8027 71.1662 37.08 72.3395 37.08ZM84.2988 39V16.6H86.6988V39H84.2988ZM97.6133 39.256C96.0559 39.256 94.6906 38.8933 93.5173 38.168C92.3653 37.4213 91.4693 36.4187 90.8293 35.16C90.1893 33.9013 89.8693 32.5147 89.8693 31C89.8693 29.464 90.1893 28.0773 90.8293 26.84C91.4693 25.5813 92.3653 24.5893 93.5173 23.864C94.6906 23.1173 96.0559 22.744 97.6133 22.744C98.9359 22.744 100.067 23 101.005 23.512C101.965 24.024 102.744 24.7173 103.341 25.592V23H105.741V39H103.341V36.44C102.744 37.2933 101.965 37.976 101.005 38.488C100.067 39 98.9359 39.256 97.6133 39.256ZM97.9333 37.08C99.1279 37.08 100.131 36.8027 100.941 36.248C101.773 35.6933 102.403 34.9573 102.829 34.04C103.256 33.1013 103.469 32.088 103.469 31C103.469 29.8907 103.256 28.8773 102.829 27.96C102.403 27.0427 101.773 26.3067 100.941 25.752C100.131 25.1973 99.1279 24.92 97.9333 24.92C96.7599 24.92 95.7466 25.1973 94.8933 25.752C94.0399 26.3067 93.3893 27.0427 92.9413 27.96C92.4933 28.8773 92.2693 29.8907 92.2693 31C92.2693 32.088 92.4933 33.1013 92.9413 34.04C93.3893 34.9573 94.0399 35.6933 94.8933 36.248C95.7466 36.8027 96.7599 37.08 97.9333 37.08ZM109.893 39V23H112.293V25.496C112.869 24.728 113.573 24.0773 114.405 23.544C115.237 23.0107 116.303 22.744 117.605 22.744C118.714 22.744 119.749 23.0107 120.709 23.544C121.69 24.056 122.479 24.8347 123.077 25.88C123.695 26.904 124.005 28.1733 124.005 29.688V39H121.605V29.752C121.605 28.3013 121.189 27.1387 120.357 26.264C119.525 25.368 118.447 24.92 117.125 24.92C116.229 24.92 115.418 25.1227 114.693 25.528C113.967 25.9333 113.381 26.5093 112.933 27.256C112.506 27.9813 112.293 28.824 112.293 29.784V39H109.893ZM134.898 39.256C133.298 39.256 131.911 38.8933 130.738 38.168C129.564 37.4213 128.647 36.4187 127.986 35.16C127.346 33.9013 127.026 32.5147 127.026 31C127.026 29.464 127.346 28.0773 127.986 26.84C128.647 25.5813 129.564 24.5893 130.738 23.864C131.911 23.1173 133.298 22.744 134.898 22.744C136.796 22.744 138.407 23.2347 139.73 24.216C141.074 25.1973 141.98 26.4667 142.45 28.024H139.858C139.495 27.1067 138.908 26.36 138.098 25.784C137.308 25.208 136.348 24.92 135.218 24.92C134.044 24.92 133.02 25.1973 132.146 25.752C131.271 26.3067 130.599 27.0427 130.13 27.96C129.66 28.8773 129.426 29.8907 129.426 31C129.426 32.088 129.66 33.1013 130.13 34.04C130.599 34.9573 131.271 35.6933 132.146 36.248C133.02 36.8027 134.044 37.08 135.218 37.08C136.348 37.08 137.308 36.792 138.098 36.216C138.908 35.64 139.495 34.8933 139.858 33.976H142.45C141.98 35.5333 141.074 36.8027 139.73 37.784C138.407 38.7653 136.796 39.256 134.898 39.256ZM152.528 39.256C150.906 39.256 149.488 38.8933 148.272 38.168C147.056 37.4213 146.106 36.4187 145.424 35.16C144.762 33.9013 144.432 32.5147 144.432 31C144.432 29.464 144.752 28.0773 145.392 26.84C146.032 25.5813 146.949 24.5893 148.144 23.864C149.338 23.1173 150.746 22.744 152.368 22.744C154.01 22.744 155.418 23.1173 156.592 23.864C157.786 24.5893 158.704 25.5813 159.344 26.84C159.984 28.0773 160.304 29.464 160.304 31V31.96H146.896C147.024 32.8987 147.322 33.7627 147.792 34.552C148.282 35.32 148.933 35.9387 149.744 36.408C150.554 36.856 151.493 37.08 152.56 37.08C153.69 37.08 154.64 36.8347 155.408 36.344C156.176 35.832 156.773 35.1813 157.2 34.392H159.824C159.269 35.8213 158.384 36.9947 157.168 37.912C155.973 38.808 154.426 39.256 152.528 39.256ZM146.928 29.72H157.808C157.594 28.3547 157.018 27.2133 156.08 26.296C155.141 25.3787 153.904 24.92 152.368 24.92C150.832 24.92 149.594 25.3787 148.656 26.296C147.738 27.2133 147.162 28.3547 146.928 29.72ZM166.059 39V20.088H158.667V17.816H175.851V20.088H168.459V39H166.059ZM182.212 39.256C180.59 39.256 179.182 38.8933 177.988 38.168C176.793 37.4213 175.876 36.4187 175.236 35.16C174.596 33.9013 174.276 32.5147 174.276 31C174.276 29.464 174.596 28.0773 175.236 26.84C175.876 25.5813 176.793 24.5893 177.988 23.864C179.182 23.1173 180.59 22.744 182.212 22.744C183.854 22.744 185.262 23.1173 186.436 23.864C187.63 24.5893 188.548 25.5813 189.188 26.84C189.828 28.0773 190.148 29.464 190.148 31C190.148 32.5147 189.828 33.9013 189.188 35.16C188.548 36.4187 187.63 37.4213 186.436 38.168C185.262 38.8933 183.854 39.256 182.212 39.256ZM182.212 37.08C183.406 37.08 184.409 36.8027 185.22 36.248C186.052 35.6933 186.681 34.9573 187.108 34.04C187.534 33.1013 187.748 32.088 187.748 31C187.748 29.8907 187.534 28.8773 187.108 27.96C186.681 27.0427 186.052 26.3067 185.22 25.752C184.409 25.1973 183.406 24.92 182.212 24.92C181.038 24.92 180.036 25.1973 179.204 25.752C178.372 26.3067 177.742 27.0427 177.316 27.96C176.889 28.8773 176.676 29.8907 176.676 31C176.676 32.088 176.889 33.1013 177.316 34.04C177.742 34.9573 178.372 35.6933 179.204 36.248C180.036 36.8027 181.038 37.08 182.212 37.08ZM193.33 39V23H195.73V25.496C196.306 24.728 197.01 24.0773 197.842 23.544C198.674 23.0107 199.741 22.744 201.042 22.744C202.151 22.744 203.186 23.0107 204.146 23.544C205.127 24.056 205.917 24.8347 206.514 25.88C207.133 26.904 207.442 28.1733 207.442 29.688V39H205.042V29.752C205.042 28.3013 204.626 27.1387 203.794 26.264C202.962 25.368 201.885 24.92 200.562 24.92C199.666 24.92 198.855 25.1227 198.13 25.528C197.405 25.9333 196.818 26.5093 196.37 27.256C195.943 27.9813 195.73 28.824 195.73 29.784V39H193.33ZM211.967 39V17.816H227.263V20.12H214.367V27.48H225.855V29.816H214.367V39H211.967ZM230.015 20.312V17.176H232.607V20.312H230.015ZM230.111 39V23H232.511V39H230.111ZM243.554 39.256C241.954 39.256 240.567 38.8933 239.394 38.168C238.22 37.4213 237.303 36.4187 236.642 35.16C236.002 33.9013 235.682 32.5147 235.682 31C235.682 29.464 236.002 28.0773 236.642 26.84C237.303 25.5813 238.22 24.5893 239.394 23.864C240.567 23.1173 241.954 22.744 243.554 22.744C245.452 22.744 247.063 23.2347 248.386 24.216C249.73 25.1973 250.636 26.4667 251.106 28.024H248.514C248.151 27.1067 247.564 26.36 246.754 25.784C245.964 25.208 245.004 24.92 243.874 24.92C242.7 24.92 241.676 25.1973 240.802 25.752C239.927 26.3067 239.255 27.0427 238.786 27.96C238.316 28.8773 238.082 29.8907 238.082 31C238.082 32.088 238.316 33.1013 238.786 34.04C239.255 34.9573 239.927 35.6933 240.802 36.248C241.676 36.8027 242.7 37.08 243.874 37.08C245.004 37.08 245.964 36.792 246.754 36.216C247.564 35.64 248.151 34.8933 248.514 33.976H251.106C250.636 35.5333 249.73 36.8027 248.386 37.784C247.063 38.7653 245.452 39.256 243.554 39.256ZM254.08 39V16.6H256.48V25.496C257.056 24.728 257.76 24.0773 258.592 23.544C259.424 23.0107 260.491 22.744 261.792 22.744C262.901 22.744 263.936 23.0107 264.896 23.544C265.877 24.056 266.667 24.8347 267.264 25.88C267.883 26.904 268.192 28.1733 268.192 29.688V39H265.792V29.752C265.792 28.3013 265.376 27.1387 264.544 26.264C263.712 25.368 262.635 24.92 261.312 24.92C260.416 24.92 259.605 25.1227 258.88 25.528C258.155 25.9333 257.568 26.5093 257.12 27.256C256.693 27.9813 256.48 28.824 256.48 29.784V39H254.08ZM272.109 20.312V17.176H274.701V20.312H272.109ZM272.205 39V23H274.605V39H272.205ZM285.872 39.256C284.25 39.256 282.832 38.8933 281.616 38.168C280.4 37.4213 279.45 36.4187 278.768 35.16C278.106 33.9013 277.776 32.5147 277.776 31C277.776 29.464 278.096 28.0773 278.736 26.84C279.376 25.5813 280.293 24.5893 281.488 23.864C282.682 23.1173 284.09 22.744 285.712 22.744C287.354 22.744 288.762 23.1173 289.936 23.864C291.13 24.5893 292.048 25.5813 292.688 26.84C293.328 28.0773 293.648 29.464 293.648 31V31.96H280.24C280.368 32.8987 280.666 33.7627 281.136 34.552C281.626 35.32 282.277 35.9387 283.088 36.408C283.898 36.856 284.837 37.08 285.904 37.08C287.034 37.08 287.984 36.8347 288.752 36.344C289.52 35.832 290.117 35.1813 290.544 34.392H293.168C292.613 35.8213 291.728 36.9947 290.512 37.912C289.317 38.808 287.77 39.256 285.872 39.256ZM280.272 29.72H291.152C290.938 28.3547 290.362 27.2133 289.424 26.296C288.485 25.3787 287.248 24.92 285.712 24.92C284.176 24.92 282.938 25.3787 282 26.296C281.082 27.2133 280.506 28.3547 280.272 29.72ZM296.58 39V23H298.98V26.936C299.065 26.6587 299.225 26.296 299.46 25.848C299.716 25.3787 300.079 24.9093 300.548 24.44C301.017 23.9707 301.604 23.576 302.308 23.256C303.033 22.9147 303.887 22.744 304.868 22.744H305.028V25.144H304.74C303.545 25.144 302.511 25.4747 301.636 26.136C300.783 26.776 300.121 27.6187 299.652 28.664C299.204 29.688 298.98 30.7867 298.98 31.96V39H296.58Z" fill="black"/>
<path d="M24.16 23.36C23.8933 24.96 23.24 26.2933 22.2 27.36C21.16 28.4267 19.88 29.2133 18.36 29.72C19.5867 29.9333 20.6 30.56 21.4 31.6C22.2 32.64 22.6 33.8667 22.6 35.28C22.6 35.7067 22.56 36.12 22.48 36.52C22.24 37.9333 21.6533 39.2133 20.72 40.36C19.7867 41.48 18.56 42.3733 17.04 43.04C15.5467 43.68 13.88 44 12.04 44H0.92L5.84 16.2H16.44C18.9733 16.2 20.9067 16.7467 22.24 17.84C23.6 18.9333 24.28 20.3467 24.28 22.08C24.28 22.48 24.24 22.9067 24.16 23.36ZM19.44 23.92C19.4933 23.5467 19.52 23.2667 19.52 23.08C19.52 22.04 19.16 21.2267 18.44 20.64C17.72 20.0533 16.7067 19.76 15.4 19.76H9.76L8.32 28H13.96C15.4533 28 16.68 27.64 17.64 26.92C18.6267 26.2 19.2267 25.2 19.44 23.92ZM18 36.04C18.0533 35.6133 18.08 35.3067 18.08 35.12C18.08 34.0267 17.68 33.16 16.88 32.52C16.08 31.88 15.0133 31.56 13.68 31.56H7.68L6.12 40.44H12.28C13.8267 40.44 15.1067 40.0533 16.12 39.28C17.1333 38.5067 17.76 37.4267 18 36.04Z" fill="#BB271A"/>
</svg>
